<svg xmlns="http://www.w3.org/2000/svg" viewBox="0 0 256 256" width="256" height="256">
  <defs>
    <linearGradient id="bg" x1="0%" y1="0%" x2="100%" y2="100%">
      <stop offset="0%" style="stop-color:#06b6d4;stop-opacity:1" />
      <stop offset="100%" style="stop-color:#a855f7;stop-opacity:1" />
    </linearGradient>
  </defs>
  <circle cx="128" cy="128" r="120" fill="url(#bg)"/>
  <path d="M128 32c-53 0-96 43-96 96 0 53 43 96 96 96s96-43 96-96C224 75 181 32 128 32z" fill="none" stroke="#020617" stroke-width="8"/>
  <path d="M128 56c-39.7 0-72 32.3-72 72s32.3 72 72 72 72-32.3 72-72-32.3-72-72-72z" fill="none" stroke="#020617" stroke-width="4"/>
  <circle cx="128" cy="128" r="24" fill="#06b6d4"/>
  <path d="M128 88v40M104 112h48" stroke="#020617" stroke-width="6" stroke-linecap="round"/>
</svg>